#!OML:ASF H:\Punching\Project 1\Capture day 1\Session 1\female.ASF
:FULLY-SPECIFIED
:DEGREES
2351
root -1.36607 15.6524 -5.46468 -164.172 184.561 -180.627
lowerback -7.01071 1.08824 1.08555
upperback -6.54837 1.38988 -0.343744
thorax -2.80534 0.645492 -0.900724
lowerneck -16.0328 2.251 7.82275
upperneck 38.3865 1.68773 -2.51776
head 16.6675 1.49465 -2.19857
rclavicle -7.68893e-015 -1.20762e-014
rhumerus -32.514 -1.19208 -84.5212
rradius 29.3337
rwrist 11.4249
rhand -11.5056 -3.11349
rfingers 7.12502
rthumb 14.5334 -32.5844
lclavicle -7.68893e-015 -1.20762e-014
lhumerus -47.1359 7.23263 75.5204
lradius 35.6567
lwrist -17.4447
lhand -3.56927 12.0371
lfingers 7.12502
lthumb 22.1675 40.7861
rfemur -19.348 1.69314 24.6177
rtibia 27.6619
rfoot -29.8494 -23.5515
rtoes -6.10396
lfemur -25.2796 -7.32194 -24.0097
ltibia 28.6051
lfoot -22.2604 8.17478
ltoes 1.73366
2352
root -1.36354 15.6468 -5.43665 -164.186 184.666 -180.609
lowerback -7.01825 1.11896 0.933852
upperback -6.55978 1.43696 -0.370618
thorax -2.81469 0.67419 -0.841402
lowerneck -16.0003 2.19376 7.86146
upperneck 38.4665 1.5417 -2.40478
head 16.6918 1.45806 -2.18363
rclavicle -7.28981e-015 4.96962e-017
rhumerus -32.5277 -1.0246 -84.7396
rradius 29.5464
rwrist 11.091
rhand -11.4188 -3.15411
rfingers 7.12502
rthumb 14.6171 -32.619
lclavicle -7.28981e-015 4.96962e-017
lhumerus -47.1214 7.10832 75.4275
lradius 35.8071
lwrist -17.2695
lhand -3.74571 11.9585
lfingers 7.12502
lthumb 21.9981 40.7275
rfemur -19.505 1.31699 24.6253
rtibia 28.1611
rfoot -29.8487 -23.3763
rtoes -6.3997
lfemur -25.1354 -7.15921 -24.0921
ltibia 28.614
lfoot -22.4986 8.02749
ltoes 1.63348
2353
root -1.36099 15.6411 -5.40825 -164.207 184.794 -180.579
lowerback -7.00754 1.14973 0.774359
upperback -6.57432 1.48442 -0.405067
thorax -2.83767 0.703127 -0.785961
lowerneck -15.9612 2.14238 7.91186
upperneck 38.5463 1.40406 -2.29969
head 16.7157 1.42556 -2.17267
rclavicle -1.7712e-015 -1.98785e-015
rhumerus -32.5396 -0.845732 -84.9505
rradius 29.7604
rwrist 10.7658
rhand -11.3171 -3.19573
rfingers 7.12502
rthumb 14.715 -32.6535
lclavicle -1.7712e-015 -1.98785e-015
lhumerus -47.1189 6.97496 75.3239
lradius 35.96
lwrist -17.1082
lhand -3.88906 11.8942
lfingers 7.12502
lthumb 21.8605 40.6793
rfemur -19.7309 0.899106 24.618
rtibia 28.7862
rfoot -29.7906 -23.1354
rtoes -6.61181
lfemur -24.9676 -6.9696 -24.1967
ltibia 28.5953
lfoot -22.7191 7.87923
ltoes 1.55313
2354
root -1.35821 15.6355 -5.3796 -164.245 184.939 -180.507
lowerback -6.9674 1.17243 0.580378
upperback -6.59296 1.52251 -0.451065
thorax -2.88218 0.728338 -0.724301
lowerneck -15.9202 2.10473 7.96978
upperneck 38.6254 1.28649 -2.19882
head 16.7407 1.40185 -2.16112
rclavicle -1.08462e-014 6.65929e-015
rhumerus -32.5544 -0.651698 -85.1502
rradius 29.9741
rwrist 10.4718
rhand -11.2214 -3.20581
rfingers 7.12502
rthumb 14.8072 -32.6568
lclavicle -1.08462e-014 6.65929e-015
lhumerus -47.1452 6.84764 75.2096
lradius 36.1416
lwrist -16.9499
lhand -4.0088 11.8492
lfingers 7.12502
lthumb 21.7455 40.6477
rfemur -20.0238 0.439514 24.5617
rtibia 29.5475
rfoot -29.6832 -22.8341
rtoes -6.74757
lfemur -24.7647 -6.76039 -24.3569
ltibia 28.54
lfoot -22.9103 7.72754
ltoes 1.48998
2355
root -1.35551 15.6301 -5.35063 -164.295 185.107 -180.419
lowerback -6.91399 1.19332 0.374895
upperback -6.60453 1.55832 -0.502955
thorax -2.92708 0.752803 -0.662657
lowerneck -15.8834 2.07474 8.03109
upperneck 38.6937 1.18261 -2.10721
head 16.7623 1.38264 -2.15152
rclavicle -2.00835e-014 3.37934e-015
rhumerus -32.5539 -0.445879 -85.3402
rradius 30.2018
rwrist 10.2001
rhand -11.1158 -3.24029
rfingers 7.12502
rthumb 14.909 -32.6838
lclavicle -2.00835e-014 3.37934e-015
lhumerus -47.1658 6.72111 75.0901
lradius 36.3376
lwrist -16.8005
lhand -4.07269 11.8604
lfingers 7.12502
lthumb 21.6842 40.666
rfemur -20.3868 -0.0126805 24.4796
rtibia 30.4442
rfoot -29.5222 -22.4998
rtoes -6.81289
lfemur -24.5311 -6.53777 -24.5407
ltibia 28.4447
lfoot -23.0639 7.58244
ltoes 1.47537
2356
root -1.35282 15.625 -5.32131 -164.359 185.291 -180.31
lowerback -6.84943 1.21259 0.157401
upperback -6.60433 1.59202 -0.563543
thorax -2.96623 0.776584 -0.603516
lowerneck -15.8615 2.05208 8.10203
upperneck 38.754 1.09092 -2.03033
head 16.7846 1.36754 -2.1478
rclavicle 4.92303e-016 -1.47101e-014
rhumerus -32.5333 -0.236278 -85.5209
rradius 30.4346
rwrist 9.95826
rhand -11.0225 -3.28315
rfingers 7.12502
rthumb 14.9988 -32.7199
lclavicle 4.92303e-016 -1.47101e-014
lhumerus -47.1758 6.60506 74.9564
lradius 36.5308
lwrist -16.6882
lhand -4.11537 11.8605
lfingers 7.12502
lthumb 21.6432 40.6709
rfemur -20.8122 -0.447692 24.3666
rtibia 31.4728
rfoot -29.3145 -22.1494
rtoes -6.82227
lfemur -24.2616 -6.30815 -24.752
ltibia 28.3047
lfoot -23.1739 7.44588
ltoes 1.49465
2357
root -1.35031 15.6204 -5.29159 -164.436 185.489 -180.184
lowerback -6.7821 1.22988 -0.0678293
upperback -6.5883 1.62295 -0.631542
thorax -2.99067 0.799201 -0.547703
lowerneck -15.8449 2.03334 8.17188
upperneck 38.7954 1.00847 -1.96187
head 16.7988 1.35429 -2.14559
rclavicle 9.90041e-015 3.08116e-015
rhumerus -32.4895 -0.0226772 -85.6911
rradius 30.6711
rwrist 9.74263
rhand -10.9582 -3.32422
rfingers 7.12502
rthumb 15.0608 -32.7564
lclavicle 9.90041e-015 3.08116e-015
lhumerus -47.1676 6.49851 74.8103
lradius 36.713
lwrist -16.609
lhand -4.14003 11.8613
lfingers 7.12502
lthumb 21.6195 40.6744
rfemur -21.2943 -0.851022 24.2266
rtibia 32.6205
rfoot -29.0537 -21.8005
rtoes -6.80998
lfemur -23.9583 -6.08486 -24.9832
ltibia 28.1221
lfoot -23.2421 7.32144
ltoes 1.56238
